<svg width="484.809" height="112.426" viewBox="0 0 128.272 29.746" xmlns="http://www.w3.org/2000/svg"><g aria-label="(mimic)=&gt;{fn}" style="font-size:40px;letter-spacing:0;word-spacing:0"><path d="M123.006 189.407h3.77q-8.77 7.344-8.77 17.441 0 10.176 8.73 17.442h-3.73q-8.672-6.895-8.672-17.403 0-10.39 8.672-17.48z" style="fill:#737373" transform="translate(-34.553 -61.73) scale(.37218)"/><path d="M151.658 217.961v-13.808q0-2.852-.527-3.965-.508-1.113-1.719-1.113-1.7 0-2.48 1.62-.762 1.622-.762 5.43v11.836h-3.145v-13.808q0-5.078-2.441-5.078-1.64 0-2.344 1.562-.703 1.543-.703 6.211v11.113h-3.164v-21.445h2.48l.528 2.89h.195q1.309-3.28 3.926-3.28 3.184 0 4.16 3.554h.117q1.485-3.554 4.278-3.554 2.5 0 3.632 1.816 1.133 1.797 1.133 6.016v14.003zM168.943 187.688q2.07 0 2.07 2.227 0 1.132-.624 1.699-.606.547-1.446.547-2.09 0-2.09-2.246 0-2.227 2.09-2.227zm-1.797 11.64-5.253-.41v-2.402h8.808v18.653l6.875.39v2.402h-17.148v-2.402l6.718-.39zM199.666 217.961v-13.808q0-2.852-.527-3.965-.508-1.113-1.72-1.113-1.698 0-2.48 1.62-.761 1.622-.761 5.43v11.836h-3.145v-13.808q0-5.078-2.441-5.078-1.64 0-2.344 1.562-.703 1.543-.703 6.211v11.113h-3.164v-21.445h2.48l.528 2.89h.195q1.309-3.28 3.926-3.28 3.183 0 4.16 3.554h.117q1.484-3.554 4.277-3.554 2.5 0 3.633 1.816 1.133 1.797 1.133 6.016v14.003zM216.951 187.688q2.07 0 2.07 2.227 0 1.132-.625 1.699-.605.547-1.445.547-2.09 0-2.09-2.246 0-2.227 2.09-2.227zm-1.797 11.64-5.254-.41v-2.402h8.809v18.653l6.875.39v2.402h-17.148v-2.402l6.718-.39zM249.314 197.278l-1.21 3.086q-2.93-1.113-5.235-1.113-7.246 0-7.246 8.066 0 7.93 7.05 7.93 3.067 0 6.27-1.211v3.125q-2.617 1.191-6.425 1.191-5.02 0-7.793-2.832-2.774-2.851-2.774-8.164 0-5.488 2.832-8.36 2.832-2.87 7.969-2.87 3.477 0 6.562 1.152z" style="fill:#ebebeb" transform="translate(-34.553 -61.73) scale(.37218)"/><path d="M262.146 224.29h-3.71q8.71-7.246 8.71-17.442 0-10.117-8.75-17.441h3.75q8.692 7.05 8.692 17.48 0 10.547-8.692 17.403zM279.568 201.32v-2.91h18.028v2.91zm0 8.009v-2.93h18.028v2.93zM303.572 210.52l13.946-6.68-13.946-6.68v-3.124l18.028 8.808v1.992l-18.028 8.81zM339.158 218.274q0 1.582 1.094 2.305 1.094.742 3.906.78v2.93q-8.554-.117-8.554-5.722v-6.523q0-3.692-6.602-3.692v-3.027q6.602 0 6.602-3.692v-6.504q0-5.605 8.554-5.722v2.91q-2.812.04-3.906.781-1.094.723-1.094 2.305v6.484q0 4.043-4.55 4.844v.234q4.55.801 4.55 4.844z" style="fill:#737373" transform="translate(-34.553 -61.73) scale(.37218)"/><path d="M369.002 199.192h-7.598v18.77h-3.554v-18.77h-6.192v-2.148l6.192-.645v-1.875q0-3.77 1.757-5.469 1.758-1.699 5.84-1.699 2.52 0 4.922.684l-.8 2.793q-2.032-.547-4.044-.547-2.402 0-3.261.976-.86.977-.86 3.223v2.031h7.598zM389.94 217.961v-13.808q0-5.078-4.649-5.078-5.996 0-5.996 7.773v11.113h-3.555v-21.445h2.871l.528 2.89h.195q2.012-3.28 6.562-3.28 7.598 0 7.598 7.832v14.003z" style="fill:#ebebeb" transform="translate(-34.553 -61.73) scale(.37218)"/><path d="M406.053 211.81q0-4.044 4.57-4.845v-.234q-4.57-.8-4.57-4.844v-6.484q0-1.582-1.114-2.324-1.093-.743-3.886-.762v-2.91q8.574.117 8.574 5.722v6.504q0 3.692 6.602 3.692v3.027q-6.602 0-6.602 3.692v6.523q0 5.605-8.574 5.723v-2.93q2.793-.02 3.886-.762 1.114-.742 1.114-2.324z" style="fill:#737373" transform="translate(-34.553 -61.73) scale(.37218)"/></g></svg>