<svg xmlns="http://www.w3.org/2000/svg" viewBox="0 0 128.272 29.746" height="113" width="485" style="background-color:white"><path d="M11.227 8.763h1.403q-3.264 2.733-3.264 6.49 0 3.787 3.25 6.49h-1.388Q8 19.18 8 15.27q0-3.867 3.228-6.506z" fill="#8c8c8c"/><path d="M21.884 19.4v-5.14q0-1.06-.196-1.476-.2-.414-.64-.414-.632 0-.923.603-.283.603-.283 2.02v4.405h-1.17v-5.14q0-1.9-.9-1.9-.6 0-.872.582-.262.574-.262 2.312v4.136H15.45V11.4h.923l.196 1.076h.073q.487-1.22 1.46-1.22 1.185 0 1.548 1.323h.044q.552-1.323 1.592-1.323.93 0 1.352.676.422.67.422 2.24v5.212zM28.3 8.123q.77 0 .77.83 0 .422-.233.632-.225.204-.538.204-.778 0-.778-.836 0-.83.778-.83zm-.67 4.332l-1.955-.153v-.894h3.278v6.942l2.56.145v.894H25.14v-.894l2.5-.145zM39.737 19.4v-5.14q0-1.06-.196-1.476-.2-.414-.64-.414-.632 0-.923.603-.283.603-.283 2.02v4.405h-1.17v-5.14q0-1.9-.9-1.9-.6 0-.872.582-.262.574-.262 2.312v4.136h-1.178V11.4h.923l.196 1.076h.073q.487-1.22 1.46-1.22 1.185 0 1.548 1.323h.044q.552-1.323 1.592-1.323.93 0 1.352.676.422.67.422 2.24v5.212zm6.426-11.267q.77 0 .77.83 0 .422-.233.632-.225.204-.538.204-.778 0-.778-.836 0-.83.778-.83zm-.67 4.332l-1.955-.153v-.894h3.278v6.942l2.56.145v.894h-6.382v-.894l2.5-.145zm12.707-.763l-.45 1.15q-1.1-.414-1.948-.414-2.697 0-2.697 3.002 0 2.95 2.624 2.95 1.14 0 2.333-.45v1.163q-.974.443-2.392.443-1.868 0-2.9-1.054-1.032-1.06-1.032-3.04 0-2.043 1.054-3.1 1.054-1.07 2.966-1.07 1.294 0 2.442.43z" fill="#141414"/><path d="M62.97 21.746H61.6q3.242-2.697 3.242-6.5 0-3.765-3.257-6.5h1.396q3.235 2.624 3.235 6.506 0 3.925-3.235 6.477zm6.476-8.55v-1.083h6.7v1.083zm0 2.98v-1.1h6.7v1.1zm8.927.443l5.2-2.486-5.2-2.486v-1.163l6.7 3.278v.74l-6.7 3.278zM91.6 19.507q0 .6.407.858.407.276 1.454.3v1.1q-3.184-.044-3.184-2.13v-2.428q0-1.374-2.457-1.374v-1.127q2.457 0 2.457-1.374v-2.42q0-2.086 3.184-2.13v1.083q-1.047.015-1.454.3-.407.27-.407.858v2.413q0 1.505-1.694 1.803v.087q1.694.298 1.694 1.803z" fill="#8c8c8c"/><path d="M102.7 12.405h-2.828v6.986H98.56v-6.986h-2.304v-.8l2.304-.24v-.698q0-1.403.654-2.035Q99.868 8 101.387 8q.938 0 1.832.254l-.298 1.04q-.756-.204-1.505-.204-.894 0-1.214.363-.32.363-.32 1.2v.756h2.828zm7.795 6.985v-5.14q0-1.9-1.73-1.9-2.232 0-2.232 2.893v4.136H105.2V11.4h1.07l.196 1.076h.073q.75-1.22 2.442-1.22 2.828 0 2.828 2.915v5.212z" fill="#141414"/><path d="M116.485 17.1q0-1.505 1.7-1.803v-.087q-1.7-.298-1.7-1.803v-2.413q0-.59-.414-.865-.407-.276-1.447-.283V8.763q3.19.044 3.19 2.13v2.42q0 1.374 2.457 1.374v1.127q-2.457 0-2.457 1.374v2.428q0 2.086-3.19 2.13v-1.1q1.04-.007 1.447-.283.414-.276.414-.865z" fill="#8c8c8c"/></svg>
